HIERARCHY
ROOT Hips
{
	OFFSET 55.310501 45.591206 43.872097
	CHANNELS 6 Xposition Yposition Zposition Zrotation Xrotation Yrotation
	JOINT Chest
	{
		OFFSET -0.153500 1.163101 7.852402
		CHANNELS 6 Xposition Yposition Zposition Zrotation Xrotation Yrotation
		JOINT Chest2
		{
			OFFSET 0.000000 0.000000 3.343300
			CHANNELS 6 Xposition Yposition Zposition Zrotation Xrotation Yrotation
			JOINT Neck
			{
				OFFSET 0.000000 0.000000 7.785500
				CHANNELS 6 Xposition Yposition Zposition Zrotation Xrotation Yrotation
				JOINT Head
				{
					OFFSET 0.000000 0.000000 2.173901
					CHANNELS 6 Xposition Yposition Zposition Zrotation Xrotation Yrotation
					End Site
					{
						OFFSET 0.000000 0.000000 10.528198
					}
				}
			}
			JOINT LeftCollar
			{
				OFFSET 2.676300 -1.652401 4.938301
				CHANNELS 6 Xposition Yposition Zposition Zrotation Xrotation Yrotation
				JOINT LeftShoulder
				{
					OFFSET 4.299000 0.000000 0.000000
					CHANNELS 6 Xposition Yposition Zposition Zrotation Xrotation Yrotation
					JOINT LeftElbow
					{
						OFFSET 0.000000 0.000000 -10.245102
						CHANNELS 6 Xposition Yposition Zposition Zrotation Xrotation Yrotation
						JOINT LeftWrist
						{
							OFFSET 0.000000 0.000000 -12.703300
							CHANNELS 6 Xposition Yposition Zposition Zrotation Xrotation Yrotation
							End Site
							{
								OFFSET 0.000000 0.000000 -2.173901
							}
						}
					}
				}
			}
			JOINT RightCollar
			{
				OFFSET -2.534599 -1.686401 5.195000
				CHANNELS 6 Xposition Yposition Zposition Zrotation Xrotation Yrotation
				JOINT RightShoulder
				{
					OFFSET -4.144100 0.000000 0.000000
					CHANNELS 6 Xposition Yposition Zposition Zrotation Xrotation Yrotation
					JOINT RightElbow
					{
						OFFSET 0.000000 0.000000 -10.116501
						CHANNELS 6 Xposition Yposition Zposition Zrotation Xrotation Yrotation
						JOINT RightWrist
						{
							OFFSET 0.000000 0.000000 -12.937801
							CHANNELS 6 Xposition Yposition Zposition Zrotation Xrotation Yrotation
							End Site
							{
								OFFSET 0.000000 0.000000 -2.173901
							}
						}
					}
				}
			}
		}
	}
	JOINT LeftHip
	{
		OFFSET 2.175598 0.064499 -2.662899
		CHANNELS 6 Xposition Yposition Zposition Zrotation Xrotation Yrotation
		JOINT LeftKnee
		{
			OFFSET 0.000000 -0.000004 -18.585800
			CHANNELS 6 Xposition Yposition Zposition Zrotation Xrotation Yrotation
			JOINT LeftAnkle
			{
				OFFSET 0.000000 0.000000 -18.979500
				CHANNELS 6 Xposition Yposition Zposition Zrotation Xrotation Yrotation
				End Site
				{
					OFFSET 0.000000 -9.264000 0.000000
				}
			}
		}
	}
	JOINT RightHip
	{
		OFFSET -2.092400 -0.058102 -2.581200
		CHANNELS 6 Xposition Yposition Zposition Zrotation Xrotation Yrotation
		JOINT RightKnee
		{
			OFFSET 0.000000 -0.000004 -18.665001
			CHANNELS 6 Xposition Yposition Zposition Zrotation Xrotation Yrotation
			JOINT RightAnkle
			{
				OFFSET 0.000000 0.000000 -18.566601
				CHANNELS 6 Xposition Yposition Zposition Zrotation Xrotation Yrotation
				End Site
				{
					OFFSET 0.000000 -8.497601 0.000000
				}
			}
		}
	}
}
MOTION
Frames: 10
Frame Time: 0.041667
67.466499 5.211903 43.853897 2488.095191 1.150733 -7.058080 -0.153500 1.163099 7.852403 -0.351575 10.699134 8.375315 0.000003 0.000007 3.343298 -2.209285 -4.750342 -0.033654 -0.000002 0.000001 7.785504 53.472451 -4.422782 -8.099612 -0.000005 0.000005 2.173901 6.585742 -0.911529 6.806170 2.676305 -1.652401 4.938306 1.320894 -0.137034 10.055153 4.299003 0.000002 -0.000012 -369.491897 -4.140572 268.361466 -0.000000 -0.000001 -10.245105 31.746955 708.492517 360.796465 -0.000004 -0.000003 -12.703304 862.627976 -341.235568 423.903069 -2.534595 -1.686403 5.195004 0.814111 1.406807 8.457471 -4.144105 -0.000006 0.000005 200.458143 194.483544 -64.395406 0.000000 -0.000008 -10.116495 -403.551810 -367.715091 -365.948449 -0.000000 0.000000 -12.937801 -1730.406679 -5.894230 36.825115 2.175594 0.064498 -2.662888 -1070.841320 -9.036641 5.859664 0.000005 0.000003 -18.585800 479.724784 -195.501611 -152.229767 0.000002 0.000009 -18.979492 752.674935 -4.513056 -675.990379 -2.092407 -0.058112 -2.581198 1353.182762 -48.491492 -15.551545 0.000007 -0.000009 -18.665005 -1185.881377 108.834932 -596.022743 0.000002 -0.000013 -18.566599 710.031004 8.435664 -370.396760
67.481499 5.203300 43.852997 2488.113332 1.211076 -7.072061 -0.153501 1.163102 7.852403 -0.404624 10.570288 8.383065 0.000008 0.000002 3.343295 -2.206994 -4.746234 -0.033505 0.000007 0.000006 7.785501 53.474985 -4.375859 -8.117899 -0.000001 0.000006 2.173910 6.598582 -0.921653 6.775193 2.676293 -1.652394 4.938303 1.269735 -0.064513 10.231839 4.298998 -0.000001 -0.000001 -369.376412 -4.153919 268.181886 0.000000 -0.000007 -10.245111 31.717476 708.526941 360.760702 0.000004 0.000003 -12.703299 862.736603 -341.181008 423.721632 -2.534590 -1.686396 5.194992 0.981655 1.736547 8.311300 -4.144105 0.000003 -0.000005 200.364678 194.680540 -64.074449 0.000001 -0.000005 -10.116505 -403.223469 -367.684601 -365.945143 -0.000004 0.000013 -12.937794 -1730.776930 -5.908106 36.833492 2.175588 0.064500 -2.662903 -1070.700891 -9.111244 5.847433 -0.000007 0.000006 -18.585808 479.639871 -195.503004 -152.134513 0.000006 0.000008 -18.979494 752.598983 -4.468437 -676.126764 -2.092407 -0.058102 -2.581202 1352.278227 -48.484747 -16.263061 0.000004 -0.000007 -18.665005 -1184.993780 108.668187 -596.449821 0.000002 -0.000005 -18.566601 710.070947 8.418650 -370.202755
67.495308 5.194805 43.850796 2488.119233 1.257834 -7.082715 -0.153494 1.163107 7.852399 -0.477702 10.476598 8.412959 0.000004 -0.000003 3.343293 -2.182311 -4.741158 -0.033761 -0.000001 -0.000007 7.785498 53.526338 -4.384078 -8.167486 -0.000003 0.000005 2.173895 6.608411 -0.937296 6.818179 2.676298 -1.652405 4.938295 1.263515 -0.043984 10.385011 4.298998 -0.000005 -0.000003 -369.293493 -4.134985 268.006241 -0.000010 0.000004 -10.245102 31.737154 708.581419 360.726469 0.000004 -0.000004 -12.703293 862.835395 -341.077572 423.461019 -2.534597 -1.686400 5.194996 0.602005 1.626474 8.072175 -4.144106 0.000001 -0.000002 200.829036 194.540795 -63.812121 0.000004 -0.000005 -10.116509 -403.061703 -367.682033 -365.983256 -0.000006 0.000001 -12.937799 -1730.752123 -6.334710 35.786739 2.175606 0.064508 -2.662898 -1070.588658 -9.165993 5.846122 0.000002 -0.000010 -18.585804 479.602933 -195.526978 -152.070788 0.000004 -0.000006 -18.979502 752.570187 -4.505860 -675.976008 -2.092399 -0.058103 -2.581206 1351.620561 -48.483674 -16.779977 0.000007 -0.000003 -18.665014 -1184.673690 108.423372 -596.468618 -0.000002 -0.000000 -18.566597 710.230008 8.536622 -369.909221
67.506401 5.187405 43.848396 2488.111802 1.305794 -7.041759 -0.153495 1.163094 7.852407 -0.538414 10.394755 8.394852 -0.000004 0.000004 3.343293 -2.154457 -4.732767 -0.034135 -0.000006 0.000004 7.785503 53.604240 -4.415709 -8.220794 0.000006 0.000005 2.173902 6.637428 -0.957005 6.916431 2.676292 -1.652395 4.938307 1.292955 -0.058545 10.547597 4.299002 0.000005 -0.000010 -369.238196 -4.089956 267.817072 0.000001 -0.000002 -10.245116 31.782810 708.644202 360.696580 0.000000 0.000000 -12.703295 862.912057 -340.973698 423.244201 -2.534601 -1.686400 5.194998 0.822700 1.833675 8.026236 -4.144096 0.000004 0.000003 200.627204 194.695102 -63.670334 0.000006 -0.000002 -10.116501 -402.978320 -367.662335 -366.018636 -0.000003 0.000004 -12.937803 -1730.854739 -6.312988 35.773922 2.175605 0.064499 -2.662899 -1070.520247 -9.217532 5.812353 0.000003 -0.000009 -18.585796 479.620965 -195.567468 -152.050953 0.000002 0.000000 -18.979498 752.611441 -4.696000 -675.247418 -2.092397 -0.058108 -2.581202 1351.333912 -48.446631 -17.022498 0.000001 -0.000004 -18.665012 -1184.366605 108.323665 -596.681938 0.000001 0.000002 -18.566603 710.214709 8.577909 -369.634675
67.515305 5.179703 43.845592 2488.108086 1.344221 -6.994866 -0.153501 1.163101 7.852395 -0.599679 10.331950 8.379805 -0.000000 0.000000 3.343303 -2.120032 -4.724759 -0.034586 0.000004 0.000005 7.785497 53.718509 -4.459974 -8.284754 -0.000006 0.000002 2.173909 6.652359 -0.962130 7.049046 2.676300 -1.652395 4.938296 1.331112 -0.090364 10.718141 4.299009 0.000006 -0.000002 -369.205575 -4.029679 267.611019 -0.000002 0.000000 -10.245111 31.855326 708.699991 360.673986 0.000013 -0.000005 -12.703300 862.976097 -340.871273 423.087927 -2.534593 -1.686399 5.195000 0.982337 1.996976 7.993580 -4.144097 0.000007 0.000001 200.465642 194.807158 -63.566426 -0.000002 0.000002 -10.116499 -402.820679 -367.621763 -365.919434 -0.000015 0.000002 -12.937796 -1730.978776 -6.409322 35.749012 2.175595 0.064494 -2.662901 -1070.500576 -9.254539 5.784656 -0.000005 0.000001 -18.585800 479.668285 -195.611577 -152.063001 0.000006 0.000005 -18.979498 752.643680 -4.818639 -674.768048 -2.092397 -0.058111 -2.581202 1351.289434 -48.411011 -17.061717 0.000009 -0.000005 -18.665010 -1184.469659 108.228480 -596.627624 -0.000001 -0.000008 -18.566601 710.247712 8.667974 -369.363708
67.521202 5.172802 43.844593 2488.105682 1.383436 -6.978712 -0.153506 1.163101 7.852408 -0.660834 10.273764 8.445132 0.000001 0.000005 3.343296 -2.048558 -4.713357 -0.035270 0.000000 -0.000016 7.785501 53.808695 -4.546903 -8.369790 -0.000003 -0.000000 2.173903 6.655008 -0.968160 7.166199 2.676297 -1.652406 4.938304 1.337576 -0.107465 10.762368 4.299001 0.000000 -0.000003 -369.186232 -4.001726 267.491846 -0.000002 -0.000010 -10.245108 31.993463 708.732448 360.682428 -0.000008 -0.000006 -12.703300 862.936318 -340.812069 423.002768 -2.534595 -1.686406 5.195004 1.059368 2.107617 7.902710 -4.144103 -0.000005 0.000004 200.335445 194.845612 -63.476623 -0.000013 0.000000 -10.116499 -402.583262 -367.635096 -365.907249 -0.000007 -0.000006 -12.937813 -1731.179966 -6.378434 35.772347 2.175589 0.064499 -2.662894 -1070.530191 -9.278633 5.782674 -0.000006 -0.000005 -18.585794 479.741340 -195.627642 -152.095472 -0.000001 -0.000003 -18.979500 752.667667 -4.897790 -674.444298 -2.092399 -0.058105 -2.581199 1351.389646 -48.402241 -16.986628 0.000014 -0.000010 -18.665003 -1184.984382 108.100373 -596.247429 0.000002 -0.000006 -18.566597 710.370437 8.772156 -369.115280
67.523499 5.167503 43.846893 2488.097814 1.412005 -6.943569 -0.153496 1.163100 7.852394 -0.629183 10.231967 8.464805 -0.000000 -0.000000 3.343298 -2.010805 -4.694826 -0.036202 -0.000005 -0.000005 7.785502 53.869118 -4.579941 -8.439005 -0.000004 -0.000002 2.173912 6.620448 -1.003049 7.237638 2.676294 -1.652400 4.938307 1.245354 -0.049319 10.772817 4.299003 -0.000004 0.000006 -369.136645 -4.062972 267.423872 -0.000002 0.000000 -10.245109 32.131409 708.754032 360.694913 0.000010 -0.000001 -12.703297 862.868398 -340.772454 423.021237 -2.534606 -1.686399 5.194999 1.070785 2.180788 7.901709 -4.144110 0.000002 -0.000002 200.214551 194.919857 -63.485174 -0.000003 -0.000002 -10.116489 -402.306748 -367.584717 -365.910446 -0.000003 -0.000008 -12.937815 -1731.311542 -6.367892 35.867359 2.175603 0.064502 -2.662908 -1070.584505 -9.291291 5.755683 0.000002 -0.000005 -18.585804 479.814232 -195.622464 -152.130320 -0.000004 -0.000005 -18.979500 752.687502 -4.949015 -674.236988 -2.092401 -0.058112 -2.581204 1351.643948 -48.367691 -16.793683 0.000002 -0.000011 -18.665005 -1185.967273 107.937117 -595.464634 0.000000 0.000001 -18.566597 710.586708 8.978145 -368.908353
67.524200 5.163002 43.852295 2488.092787 1.431471 -6.924920 -0.153492 1.163108 7.852405 -0.560019 10.206541 8.497203 -0.000006 -0.000005 3.343304 -1.987785 -4.680432 -0.037107 -0.000002 0.000004 7.785503 53.868978 -4.582909 -8.486593 0.000006 -0.000003 2.173901 6.583094 -1.048761 7.244259 2.676300 -1.652391 4.938305 1.101019 0.047777 10.754048 4.299001 0.000000 -0.000000 -369.069108 -4.168041 267.388573 0.000001 0.000007 -10.245110 32.244766 708.760971 360.712508 -0.000011 -0.000006 -12.703310 862.801517 -340.775295 423.118280 -2.534593 -1.686399 5.195000 1.044072 2.219080 7.906451 -4.144102 0.000006 -0.000010 200.132343 194.979962 -63.508294 0.000005 -0.000005 -10.116499 -401.889533 -367.728041 -365.815315 0.000003 0.000006 -12.937807 -1731.551637 -6.347155 35.777921 2.175603 0.064511 -2.662895 -1070.626360 -9.292488 5.736931 -0.000007 0.000006 -18.585800 479.859749 -195.603627 -152.157818 0.000006 0.000012 -18.979502 752.670181 -4.926431 -674.310043 -2.092399 -0.058100 -2.581198 1351.838362 -48.334708 -16.641032 0.000014 -0.000001 -18.665005 -1186.657723 107.838913 -594.929257 0.000001 0.000002 -18.566599 710.668069 9.064309 -368.648177
67.523804 5.159103 43.860100 2488.096721 1.440893 -6.943092 -0.153505 1.163108 7.852405 -0.468145 10.195638 8.571145 0.000001 -0.000005 3.343302 -1.971682 -4.665547 -0.038371 -0.000012 0.000004 7.785493 53.797978 -4.560143 -8.514162 -0.000002 0.000002 2.173902 6.550483 -1.122534 7.208024 2.676291 -1.652388 4.938298 0.906894 0.186819 10.679899 4.299003 0.000001 -0.000005 -368.985561 -4.326173 267.404747 -0.000002 -0.000003 -10.245112 32.355518 708.743759 360.737862 0.000000 -0.000007 -12.703294 862.735073 -340.798873 423.241578 -2.534611 -1.686394 5.194992 0.984422 2.229813 7.932326 -4.144097 0.000005 -0.000005 200.061814 195.062375 -63.576589 0.000001 -0.000002 -10.116495 -401.415764 -367.791480 -365.741658 -0.000003 0.000002 -12.937803 -1731.763974 -6.341291 35.776968 2.175591 0.064503 -2.662899 -1070.645157 -9.282418 5.746962 0.000002 0.000001 -18.585800 479.873464 -195.576374 -152.171137 0.000004 0.000008 -18.979496 752.598054 -4.793309 -674.810560 -2.092398 -0.058104 -2.581194 1351.961743 -48.329117 -16.534179 0.000006 -0.000016 -18.664995 -1187.927811 107.579140 -593.789763 0.000001 -0.000010 -18.566597 710.954445 9.289628 -368.275795
67.522598 5.155895 43.869896 2488.106994 1.442845 -6.965724 -0.153502 1.163101 7.852400 -0.361996 10.197263 8.643011 0.000004 -0.000001 3.343303 -1.970251 -4.650976 -0.040046 0.000000 -0.000006 7.785499 53.642738 -4.508916 -8.501226 0.000004 -0.000000 2.173911 6.551420 -1.231478 7.116421 2.676301 -1.652403 4.938296 0.702958 0.325461 10.560053 4.299006 -0.000003 -0.000007 -368.893190 -4.494598 267.479552 -0.000003 0.000001 -10.245111 32.532423 708.717531 360.781438 0.000000 -0.000003 -12.703300 862.594098 -340.825292 423.375942 -2.534598 -1.686403 5.194990 0.915192 2.227209 7.994839 -4.144103 0.000001 0.000003 200.007856 195.188078 -63.691999 0.000009 -0.000001 -10.116501 -401.152965 -367.828063 -365.701688 -0.000008 -0.000002 -12.937805 -1731.773591 -6.326024 35.790027 2.175592 0.064507 -2.662904 -1070.647889 -9.264730 5.759179 -0.000002 -0.000007 -18.585800 479.878217 -195.547592 -152.183991 0.000007 0.000015 -18.979500 752.515545 -4.654925 -675.354570 -2.092396 -0.058097 -2.581205 1352.026439 -48.323926 -16.471503 0.000012 -0.000005 -18.665005 -1188.697819 107.440877 -593.086199 0.000001 0.000000 -18.566601 711.101595 9.358583 -368.037421
